<?xml version="1.0" encoding="UTF-8" standalone="no"?>
<svg
   xmlns:dc="http://purl.org/dc/elements/1.1/"
   xmlns:cc="http://creativecommons.org/ns#"
   xmlns:rdf="http://www.w3.org/1999/02/22-rdf-syntax-ns#"
   xmlns:svg="http://www.w3.org/2000/svg"
   xmlns="http://www.w3.org/2000/svg"
   xmlns:sodipodi="http://sodipodi.sourceforge.net/DTD/sodipodi-0.dtd"
   xmlns:inkscape="http://www.inkscape.org/namespaces/inkscape"
   width="148.17451"
   height="128.18407"
   viewBox="0 0 123.47876 106.82006"
   preserveAspectRatio="xMidYMid"
   class="uil-gears"
   version="1.1"
   id="svg12"
   sodipodi:docname="aiidalab_arrows_v3.svg"
   inkscape:version="0.91 r13725">
  <metadata
     id="metadata18">
    <rdf:RDF>
      <cc:Work
         rdf:about="">
        <dc:format>image/svg+xml</dc:format>
        <dc:type
           rdf:resource="http://purl.org/dc/dcmitype/StillImage" />
        <dc:title></dc:title>
      </cc:Work>
    </rdf:RDF>
  </metadata>
  <defs
     id="defs16">
    <clipPath
       clipPathUnits="userSpaceOnUse"
       id="clipPath4224">
      <rect
         y="-941.92352"
         x="-691.42859"
         height="934.28571"
         width="1548.5715"
         id="rect4226"
         style="opacity:1;fill:#ffffff;fill-opacity:1;stroke:none;stroke-width:0.5;stroke-linecap:square;stroke-linejoin:miter;stroke-miterlimit:4;stroke-dasharray:none;stroke-dashoffset:0;stroke-opacity:1" />
    </clipPath>
    <clipPath
       clipPathUnits="userSpaceOnUse"
       id="clipPath4230">
      <rect
         style="opacity:1;fill:#ffffff;fill-opacity:1;stroke:#000000;stroke-width:0.67285109;stroke-linecap:square;stroke-linejoin:miter;stroke-miterlimit:4;stroke-dasharray:none;stroke-dashoffset:0;stroke-opacity:1"
         id="rect4232"
         width="1825.5415"
         height="1051.2557"
         x="-979.91364"
         y="-590.40851" />
    </clipPath>
    <clipPath
       clipPathUnits="userSpaceOnUse"
       id="clipPath4250">
      <rect
         style="opacity:1;fill:#ffffff;fill-opacity:1;stroke:none;stroke-width:20;stroke-linecap:square;stroke-linejoin:miter;stroke-miterlimit:4;stroke-dasharray:none;stroke-dashoffset:0;stroke-opacity:1"
         id="rect4252"
         width="888.41724"
         height="393.91031"
         x="-277.13654"
         y="-937.26233" />
    </clipPath>
    <clipPath
       clipPathUnits="userSpaceOnUse"
       id="clipPath4262">
      <rect
         style="opacity:1;fill:#ffffff;fill-opacity:1;stroke:none;stroke-width:20;stroke-linecap:square;stroke-linejoin:miter;stroke-miterlimit:4;stroke-dasharray:none;stroke-dashoffset:0;stroke-opacity:1"
         id="rect4264"
         width="1490.625"
         height="696.875"
         x="-640"
         y="-663.26282" />
    </clipPath>
    <clipPath
       clipPathUnits="userSpaceOnUse"
       id="clipPath4341">
      <rect
         style="opacity:1;fill:#ffffff;fill-opacity:1;stroke:none;stroke-width:20;stroke-linecap:square;stroke-linejoin:miter;stroke-miterlimit:4;stroke-dasharray:none;stroke-dashoffset:0;stroke-opacity:1"
         id="rect4343"
         width="1389.6031"
         height="576.05365"
         x="-556.14594"
         y="-610.65808" />
    </clipPath>
  </defs>
  <sodipodi:namedview
     pagecolor="#ffffff"
     bordercolor="#666666"
     borderopacity="1"
     objecttolerance="10"
     gridtolerance="10"
     guidetolerance="10"
     inkscape:pageopacity="0"
     inkscape:pageshadow="2"
     inkscape:window-width="1243"
     inkscape:window-height="857"
     id="namedview14"
     showgrid="false"
     inkscape:zoom="2.7812867"
     inkscape:cx="51.93694"
     inkscape:cy="40.653784"
     inkscape:window-x="461"
     inkscape:window-y="0"
     inkscape:window-maximized="0"
     inkscape:current-layer="svg12"
     fit-margin-top="0"
     fit-margin-left="0"
     fit-margin-right="0"
     fit-margin-bottom="0" />
  <rect
     x="-57.961605"
     y="50"
     width="100"
     height="100"
     class="bk"
     id="rect2"
     style="fill:none" />
  <g
     id="orange"
     transform="translate(-8.0952392,0)">
    <path
       inkscape:connector-curvature="0"
       id="path4"
       d="M 69.80957,1.4279465e-7 C 68.90957,1.4279465e-7 68.010286,-7.1600304e-4 67.210286,0.09928399 L 66.809896,5.2001955 C 64.409896,5.5001955 62.209049,6.1003256 60.109049,7.0003256 L 57.210286,2.9003908 C 55.610286,3.6003907 54.109961,4.4996746 52.709961,5.4996746 L 54.80957,10.099284 C 52.90957,11.499284 51.30957,13.2 49.80957,15 L 45.309244,12.900391 C 44.309244,14.300391 43.40996,15.800716 42.70996,17.400716 L 46.809895,20.299479 C 45.909895,22.399479 45.309765,24.699609 45.009765,27.099609 L 40.009765,27.5 C 39.809765,28.2 39.80957,29.1 39.80957,30 39.80957,30.9 39.808854,31.799284 39.90885,32.599284 L 44.90885,32.999674 C 45.20885,35.399674 45.80898,37.699805 46.70898,39.799805 L 42.609045,42.700195 C 43.309045,44.300195 44.209956,45.800521 45.209956,47.200521 L 49.710282,45.099284 C 51.110282,46.999284 52.810282,48.6 54.710282,50 L 52.609045,54.599609 C 54.009045,55.599609 55.509371,56.500521 57.109371,57.200521 L 60.009761,53.100586 C 62.109761,54.000586 64.40898,54.600716 66.70898,54.900716 L 67.109375,60 69.80957,60 C 70.70957,60 71.608854,60.000716 72.408854,59.90072 L 72.809244,54.799809 C 75.109244,54.499809 77.410091,53.899678 79.510091,52.999678 L 82.408854,57.200525 C 84.008854,56.500525 85.509179,55.599613 86.909179,54.599613 L 84.80957,49.900716 C 86.70957,48.500716 88.310285,46.9 89.710285,45 L 94.309895,47.200521 C 95.309895,45.800521 96.209179,44.300195 96.909179,42.700195 L 92.809244,39.799805 C 93.709244,37.699805 94.309375,35.400586 94.609375,33.100586 L 99.710285,32.599284 C 99.810285,31.799284 99.809565,30.9 99.809565,30 99.809565,29.1 99.81028,28.200716 99.710285,27.400716 L 94.609375,27.000326 C 94.309375,24.600326 93.709244,22.399479 92.809244,20.299479 L 97.01009,17.400716 C 96.31009,15.800716 95.409179,14.300391 94.409179,12.900391 L 89.80957,15 C 88.40957,13.1 86.708854,11.499284 84.908854,10.099284 L 87.109375,5.4996746 C 85.709375,4.4996746 84.209049,3.6003907 82.609049,2.9003908 L 79.609375,7.0003256 C 77.509375,6.1003256 75.210156,5.5001955 72.910156,5.2001955 L 72.509765,0.09928399 C 71.609765,-7.1600304e-4 70.70957,1.4279465e-7 69.80957,1.4279465e-7 Z M 60.418294,15.613607 68.808593,20.454102 77.195637,25.299479 72.058919,28.266602 79.200846,40.636393 72.698567,44.386393 65.558268,32.019857 60.419921,34.986979 60.419921,25.297852 Z"
       style="fill:#ff7d17;stroke-width:1">
      <animateTransform
         repeatCount="indefinite"
         dur="4s"
         to="360 69.80957 30"
         from="0 69.80957 30"
         type="rotate"
         attributeName="transform" />
    </path>
  </g>
  <g
     id="blue"
     transform="matrix(0.93358043,0.35836796,-0.35836796,0.93358043,16.096497,-28.029318)">
    <path
       inkscape:connector-curvature="0"
       id="path8"
       d="M 115.03743,40.445963 113.33008,45.268555 C 110.93421,44.937167 108.65461,44.947603 106.39323,45.273455 L 104.65332,40.561506 C 102.92667,40.823545 101.2449,41.305583 99.633788,41.909163 L 100.47038,46.896142 C 98.272772,47.756682 96.288135,48.984831 94.373371,50.33527 L 90.56966,47.14191 C 89.241388,48.235387 87.984789,49.451105 86.89453,50.815413 L 90.104166,54.677717 C 88.691313,56.473225 87.515761,58.539028 86.604817,60.779605 L 81.671549,59.87303 C 81.29719,60.497414 81.064642,61.36535 80.831705,62.234684 80.598768,63.104016 80.365996,63.973495 80.255533,64.772118 L 84.982095,66.453434 C 84.650708,68.849301 84.63512,71.226558 84.960935,73.487939 L 80.249021,75.227848 C 80.511059,76.954502 80.993098,78.636263 81.596677,80.247379 L 86.486,79.383121 C 87.34654,81.580727 88.574285,83.566091 90.047198,85.410141 L 86.829426,89.3099 C 87.922904,90.638166 89.138621,91.896391 90.502929,92.98665 L 94.365234,89.777016 C 96.16074,91.189875 98.22711,92.363633 100.37109,93.2487 L 99.436848,98.279625 102.04427,98.977866 C 102.9136,99.2108 103.78308,99.443575 104.5817,99.554033 L 106.28906,94.731441 C 108.58834,95.03695 110.96453,95.0524 113.22591,94.726441 L 114.93978,99.534383 C 116.66643,99.272341 118.34819,98.7903 119.95931,98.186725 L 119.14876,93.103716 C 121.34637,92.243175 123.30569,91.111458 125.14974,89.63855 L 129.02344,92.955608 C 130.35171,91.862125 131.60831,90.644783 132.69857,89.280475 L 129.48893,85.418166 C 130.90179,83.622658 132.07718,81.556294 132.96224,79.41231 L 138.01758,80.250526 C 138.32123,79.503666 138.55449,78.634508 138.78744,77.765174 139.02037,76.895842 139.25314,76.026362 139.3636,75.22774 L 134.54101,73.520382 C 134.8724,71.124515 134.86197,68.844916 134.53601,66.583534 L 139.34395,64.869667 C 139.08194,63.143012 138.59987,61.461251 137.99629,59.850135 L 133.01094,60.686724 C 132.1504,58.489119 130.92209,56.503917 129.54577,54.685747 L 132.8612,50.812049 C 131.76773,49.483777 130.55201,48.227177 129.1877,47.136919 L 125.22774,50.320513 C 123.43223,48.907659 121.36586,47.732267 119.22188,46.847206 L 120.15612,41.817909 C 119.3128,41.488504 118.4442,41.255072 117.57487,41.022135 116.70554,40.789198 115.83606,40.556427 115.03743,40.445963 Z M 105.1686,61.116028 114.73956,62.617901 124.30691,64.119427 118.22328,71.655593 112.13602,79.191413 110.00224,73.655808 96.674261,78.793272 93.977971,71.789466 107.30292,66.653171 Z"
       style="fill:#0096de;stroke-width:1"
       sodipodi:nodetypes="ccccccccccccsccccccccccccccccccccccccccccccccccccccsccccccccccc">
      <animateTransform
         repeatCount="indefinite"
         dur="4s"
         to="0 109.80631 70"
         from="360 109.80631 70"
         type="rotate"
         attributeName="transform" />
    </path>
  </g>
  <flowRoot
     transform="matrix(0.88888891,0,0,0.88888891,358.2306,-535.57642)"
     style="font-style:normal;font-variant:normal;font-weight:normal;font-stretch:normal;line-height:0.01%;font-family:Arial;-inkscape-font-specification:Arial;letter-spacing:0px;word-spacing:0px;fill:#000000;fill-opacity:1;stroke:none;stroke-width:1px;stroke-linecap:butt;stroke-linejoin:miter;stroke-opacity:1"
     id="flowRoot4296"
     xml:space="preserve"><flowRegion
       id="flowRegion4298"><rect
         y="-2071.4741"
         x="-1718.75"
         height="3900"
         width="5706.25"
         id="rect4300" /></flowRegion><flowPara
       style="font-size:20px;line-height:1.25"
       id="flowPara4302"> </flowPara></flowRoot>  <g
     id="green"
     transform="matrix(0.92718386,-0.3746066,0.3746066,0.92718386,-23.700038,22.884618)">
    <path
       inkscape:connector-curvature="0"
       id="path1073"
       d="M 34.786783,40.445963 33.081054,45.268555 C 30.685187,44.937167 28.40396,44.947602 26.142577,45.273455 L 24.402669,40.56154 C 22.676014,40.823579 20.994252,41.305618 19.383137,41.909197 L 20.221354,46.896176 C 18.023747,47.756716 16.037484,48.984865 14.122721,50.335304 L 10.320637,47.141944 C 8.992365,48.235438 7.7341391,49.451156 6.64388,50.815464 L 9.853515,54.677768 C 8.4406616,56.473276 7.2667366,58.539081 6.3557941,60.779657 L 1.4225258,59.873081 C 1.0481667,60.497466 0.81561916,61.365402 0.58268166,62.234735 0.349745,63.104067 0.11534583,63.973547 0.0048825,64.772169 L 4.731445,66.453485 C 4.4000566,68.849352 4.3844691,71.226607 4.7102866,73.48799 L 8.3333333e-7,75.227899 C 0.2620375,76.954553 0.74245,78.636315 1.3460292,80.24743 L 6.23698,79.383172 C 7.09752,81.580777 8.3252658,83.566142 9.7981775,85.410192 L 6.5787766,89.309934 C 7.6722533,90.638201 8.8879708,91.896426 10.252279,92.986684 L 14.114584,89.777051 C 15.910091,91.189909 17.976459,92.363667 20.120443,93.248734 L 19.187826,98.279659 21.795247,98.977901 C 22.664581,99.210834 23.53406,99.443609 24.332682,99.554067 L 26.038412,94.731476 C 28.337687,95.036984 30.715507,95.052434 32.976888,94.726476 L 34.690756,99.534417 C 36.41741,99.272376 38.099172,98.790334 39.710287,98.186759 L 38.898112,93.103841 C 41.095717,92.2433 43.055036,91.111583 44.899088,89.638675 L 48.772786,92.955733 C 50.101059,91.86225 51.359285,90.644908 52.449544,89.2806 L 49.239908,85.418291 C 50.652762,83.622783 51.826527,81.556417 52.711588,79.412435 L 57.768554,80.250651 C 58.072201,79.503791 58.303846,78.634632 58.536783,77.765299 58.769721,76.895966 59.00412,76.026487 59.114583,75.227865 L 54.290364,73.520507 C 54.621752,71.12464 54.612943,68.84504 54.287164,66.583659 L 59.093479,64.869792 C 58.831463,63.143137 58.351029,61.461376 57.747451,59.85026 L 52.760471,60.686849 C 51.899931,58.489243 50.671622,56.504042 49.295301,54.685872 L 52.610731,50.812174 C 51.517255,49.483902 50.301537,48.227303 48.937229,47.137044 L 44.978896,50.320638 C 43.183384,48.907785 41.117015,47.732392 38.973031,46.847331 L 39.907276,41.818034 C 39.063825,41.488504 38.193602,41.255072 37.324268,41.022135 36.454935,40.789197 35.585456,40.556426 34.786833,40.445963 Z M 39.017938,58.067007 43.345977,64.199261 31.681521,72.436711 35.104886,77.285771 25.457123,78.168782 15.813,79.051676 19.86939,70.256123 23.929551,61.460513 27.350641,66.306732 Z"
       style="fill:#30b808;stroke-width:1"
       sodipodi:nodetypes="ccccccccccccscccccccccccccccccccccccccsccccccccccccscccccccccccc">
      <animateTransform
         repeatCount="indefinite"
         dur="4s"
         to="0 29.557291 70.000015"
         from="360 29.557291 70.000015"
         type="rotate"
         attributeName="transform" />
    </path>
  </g>
</svg>
